<?xml version="1.0" encoding="UTF-8" standalone="no"?>
<svg
   xmlns:dc="http://purl.org/dc/elements/1.1/"
   xmlns:cc="http://creativecommons.org/ns#"
   xmlns:rdf="http://www.w3.org/1999/02/22-rdf-syntax-ns#"
   xmlns:svg="http://www.w3.org/2000/svg"
   xmlns="http://www.w3.org/2000/svg"
   xmlns:sodipodi="http://sodipodi.sourceforge.net/DTD/sodipodi-0.dtd"
   xmlns:inkscape="http://www.inkscape.org/namespaces/inkscape"
   width="128"
   height="128"
   viewBox="0 0 33.866666 33.866668"
   version="1.1"
   id="svg8"
   inkscape:version="1.0.2-2 (e86c870879, 2021-01-15)"
   sodipodi:docname="logo.svg">
  <defs
     id="defs2" />
  <sodipodi:namedview
     id="base"
     pagecolor="#ffffff"
     bordercolor="#666666"
     borderopacity="1.0"
     inkscape:pageopacity="0.0"
     inkscape:pageshadow="2"
     inkscape:zoom="2.8"
     inkscape:cx="1.3283855"
     inkscape:cy="110.61831"
     inkscape:document-units="mm"
     inkscape:current-layer="layer2"
     inkscape:document-rotation="0"
     showgrid="false"
     units="px"
     inkscape:window-width="1920"
     inkscape:window-height="1017"
     inkscape:window-x="1912"
     inkscape:window-y="-8"
     inkscape:window-maximized="1" />
  <metadata
     id="metadata5">
    <rdf:RDF>
      <cc:Work
         rdf:about="">
        <dc:format>image/svg+xml</dc:format>
        <dc:type
           rdf:resource="http://purl.org/dc/dcmitype/StillImage" />
        <dc:title></dc:title>
      </cc:Work>
    </rdf:RDF>
  </metadata>
  <g
     inkscape:label="Lager 1"
     inkscape:groupmode="layer"
     id="layer1">
    <circle
       style="fill:#e7eed7;fill-opacity:1;stroke-width:0.266786"
       id="path89"
       cx="16.933332"
       cy="16.933332"
       r="16.933332" />
  </g>
  <g
     inkscape:groupmode="layer"
     id="layer2"
     inkscape:label="Lager 2">
    <path
       style="fill:#66290a;stroke-width:0.386363;fill-opacity:1"
       id="path48"
       d="m 7.4165055,29.769779 c 0.5773923,-0.01551 1.1551464,-0.01652 1.7327189,-0.0144 0.5674304,0.0176 1.1094526,-0.118517 1.6495046,-0.271836 1.13424,-0.384719 2.21361,-0.993138 3.074867,-1.8258 0.417018,-0.402895 0.64178,-0.927558 0.897362,-1.433826 0.304539,-0.507347 0.461347,-1.074933 0.66942,-1.622277 0.207126,-0.578852 0.360849,-1.172749 0.527287,-1.763661 0.131718,-0.501898 0.272973,-0.999851 0.35426,-1.512643 0.03604,-0.450332 0.08225,-0.896897 0.140686,-1.344969 0.05381,-0.377221 0.06303,-0.758179 0.06649,-1.138498 -0.0088,-0.505999 -0.0023,-1.01206 0.0027,-1.518055 0.003,-0.40881 -2.34e-4,-0.817653 -0.0017,-1.226473 -0.0038,-0.406854 0.0042,-0.813682 0.0035,-1.220529 -0.0087,-0.362845 -0.01056,-0.721483 0.04803,-1.079878 0.05534,-0.354257 0.07035,-0.714142 0.08447,-1.072088 0.0073,-0.206548 0.0091,-0.413218 0.01068,-0.619868 0,0 -1.822483,0.920735 -1.822483,0.920735 v 0 c -8.48e-4,0.203806 -0.0019,0.407634 -0.0085,0.611356 -0.01333,0.353026 -0.03516,0.705849 -0.09572,1.054517 -0.04491,0.366714 -0.0274,0.734378 -0.03083,1.103146 -8.48e-4,0.405718 0.0071,0.811414 0.0035,1.217138 -9.42e-4,0.409083 -0.0038,0.818203 1.43e-4,1.227268 0.006,0.505 0.01362,1.010285 -0.0058,1.515105 -0.01099,0.373949 -0.02756,0.74793 -0.07564,1.119332 -0.05388,0.444686 -0.08602,0.890669 -0.138489,1.335327 -0.08629,0.501944 -0.224935,0.993264 -0.351262,1.486362 -0.166931,0.585959 -0.314418,1.177699 -0.531922,1.7483 -0.199266,0.547903 -0.392465,1.096924 -0.684704,1.605442 -0.247726,0.497417 -0.502689,0.990569 -0.925022,1.368551 -0.640399,0.57754 -1.2943,0.81538 1.067056,-0.480814 0.07197,-0.0395 -0.13355,0.09629 -0.206355,0.134248 -0.03785,0.01975 -0.435809,0.175838 -0.476746,0.192017 -0.531993,0.155128 -1.061327,0.317336 -1.622127,0.321796 -0.564199,0.0019 -1.1286132,0.0017 -1.6926141,-0.01441 0,0 -1.6627656,1.1995 -1.6627656,1.1995 z" />
    <path
       style="fill:#66290a;stroke-width:0.386363;fill-opacity:1"
       id="path50"
       d="m 27.401231,26.519389 c -0.434648,0.137315 -0.888493,0.191856 -1.340839,0.233058 -0.480858,0.0381 -0.963324,0.04315 -1.445432,0.04346 -0.460887,0.01524 -0.922197,-0.02717 -1.348234,-0.208983 -0.38797,-0.25966 -0.717596,-0.601229 -1.040882,-0.93517 -0.348478,-0.432161 -0.760855,-0.813607 -1.046746,-1.291714 -0.264714,-0.547155 -0.337354,-1.168972 -0.415154,-1.765632 -0.06434,-0.593511 -0.147839,-1.183984 -0.189613,-1.77979 -0.0392,-0.614245 -0.03723,-1.22988 -0.03615,-1.845024 0.0068,-0.51205 0.0038,-1.024143 0.0014,-1.536217 0.04858,-0.564517 0.09353,-1.128656 0.113267,-1.694973 0.02301,-0.634012 0.02011,-1.268415 0.02116,-1.902702 -1.43e-4,-0.512512 0.0085,-1.024965 0.01422,-1.537432 0.0021,-0.22288 0.0012,-0.11354 0.0027,-0.328008 0,0 -1.819671,0.920735 -1.819671,0.920735 v 0 c 0.0018,0.212679 7.77e-4,0.104316 0.003,0.325088 0.0065,0.507378 0.01626,1.014754 0.0145,1.522195 -0.0021,0.632839 -0.0076,1.265872 -0.03027,1.89835 -0.02893,0.569139 -0.08222,1.136265 -0.114791,1.705061 -0.0035,0.512172 -0.0085,1.024392 1.65e-4,1.536536 0.006,0.619164 0.01216,1.238719 0.04249,1.857242 0.04573,0.597953 0.136715,1.189807 0.205254,1.785394 0.0876,0.624136 0.160378,1.274088 0.435996,1.848062 0.301371,0.485488 0.729561,0.871931 1.078108,1.323306 0.335061,0.354879 0.675846,0.711519 1.062606,1.011039 0.437874,0.216186 0.929545,0.283049 1.415931,0.269595 0.481686,-0.0019 0.964276,0.01309 1.445041,-0.02205 0.451892,-0.03738 0.905487,-0.0834 1.347102,-0.189268 0,0 1.624802,-1.242147 1.624802,-1.242147 z" />
    <path
       style="fill:#006600;stroke-width:0.386363;fill-opacity:1"
       id="path56"
       d="m 13.429997,19.50247 c -0.398264,0.143805 -0.79953,0.281417 -1.206284,0.399694 -0.499339,0.108387 -0.980098,0.280514 -1.465675,0.435871 -0.492652,0.143676 -0.9847482,0.287318 -1.4722968,0.447398 -0.5417893,0.173497 -1.0989589,0.296836 -1.6592295,0.394482 -0.4319266,0.07535 -0.8598953,0.180254 -1.2991126,0.202433 -0.015589,-0.0023 -0.038656,0.0064 -0.046776,-0.007 -0.00644,-0.01062 0.025768,-0.0038 0.035903,-0.0109 0.028444,-0.02053 0.055057,-0.04409 0.077641,-0.07087 0.1338151,-0.158516 0.2436664,-0.320029 0.3901493,-0.47004 0.4464003,-0.518553 0.9408707,-0.992751 1.4229009,-1.478717 0.493543,-0.527744 1.0561998,-0.982669 1.6058485,-1.450509 0.4782702,-0.419104 0.9650942,-0.830868 1.4244672,-1.270281 0.458809,-0.410734 0.928832,-0.806788 1.371575,-1.23491 0.171685,-0.153729 0.741775,-0.48561 0.678131,-0.769312 -0.01469,-0.06545 -0.06205,-0.119084 -0.0931,-0.178635 -0.05061,-0.04806 -0.09512,-0.103391 -0.151845,-0.14422 -0.16728,-0.120506 -0.355595,-0.184996 -0.545458,-0.260718 C 12.161257,13.902451 11.82077,13.792122 11.47645,13.682898 10.768266,13.475632 10.039927,13.348017 9.3095183,13.248181 8.8063094,13.142542 8.3039463,13.037455 7.7973299,12.94917 7.2627497,12.825808 6.6471177,12.886778 6.1613295,12.604194 c 0.057505,-0.185291 0.2891577,-0.31111 0.4377939,-0.419566 0.3561055,-0.259842 0.055979,-0.06751 0.4398583,-0.298735 -0.493206,0.284905 -0.988048,0.567036 -1.4796189,0.854715 -0.082874,0.0485 0.1702654,-0.08906 0.2534095,-0.137113 C 6.4655885,12.226306 7.1147004,11.842822 7.7671348,11.46498 8.9194127,10.797668 5.6032352,12.701531 6.7497926,12.056768 8.0181352,11.43213 9.1594967,10.608522 10.35183,9.8636298 11.388732,9.2802246 10.076641,10.015537 9.4171704,10.420417 9.2835322,10.502457 9.6948328,10.274304 9.8335788,10.201084 10.244163,9.9844058 10.651815,9.7625178 11.061555,9.5442778 c 1.128316,-0.556561 4.262447,-2.4575048 1.069229,-0.5835494 -0.09915,0.058188 0.202311,-0.1093646 0.303313,-0.1643159 0.09154,-0.049792 0.184237,-0.097548 0.27428,-0.1499502 0.655653,-0.3815471 1.308465,-0.7678833 1.962697,-1.1518247 -0.170796,0.086955 0.627071,-0.3721722 0.468959,-0.2813877 -0.496371,0.285005 -1.977396,1.1535613 -1.488309,0.8563938 1.120097,-0.6805668 1.68519,-0.903516 2.529798,-1.5741893 0.548584,-0.3332797 0.998982,-0.7414652 1.4318,-1.2078342 0.431809,-0.3755561 0.756274,-0.8424984 1.116786,-1.2791924 0.386309,-0.4793247 0.672708,-1.017647 0.950644,-1.5625877 0.04606,-0.098248 0.0908,-0.1970996 0.138165,-0.2947285 0.04646,-0.095803 0.09803,-0.1891443 0.143296,-0.2855116 0.119672,-0.2547539 0.203997,-0.5394865 0.38953,-0.7567335 0.01201,-0.00507 0.04786,-0.021025 0.03623,-0.015089 -2.139066,1.0902352 -1.864539,0.3947193 -1.899869,1.8499825 -0.04555,0.5963991 0.0019,1.1838952 0.09086,1.7731814 0.113457,0.5716937 0.320865,1.1244846 0.56541,1.6528225 0.263653,0.6103431 0.590205,1.1942049 0.955484,1.7500969 0.281112,0.5056992 0.666315,0.9148903 1.113219,1.2775855 0.682654,0.5053095 1.374257,0.9987247 2.086982,1.4614657 0.920681,0.569191 1.82045,1.171438 2.744152,1.735652 0.646237,0.398386 1.297555,0.786215 1.930259,1.205218 0.482506,0.341443 1.037159,0.600994 1.45903,1.020038 0.0099,0.02585 0.04542,0.05502 0.02933,0.07756 -0.01741,0.02443 -0.06081,6.52e-4 -0.09013,0.0077 -0.04657,0.01106 -0.17678,0.07109 -0.135938,0.04623 2.57553,-1.567385 1.952712,-1.057644 1.239395,-0.786334 -0.524674,0.199256 -1.079586,0.301889 -1.63151,0.394441 -0.667861,0.108302 -1.344871,0.124281 -2.019928,0.135017 -0.461832,0.004 -0.923643,-0.0025 -1.385474,-0.0025 -0.460461,0.0045 -0.920931,7.69e-4 -1.381383,-0.0023 -0.29974,0.0095 -0.59614,-0.04178 -0.890255,-0.09259 -0.716792,-0.151155 -0.283181,-0.07304 -1.746756,1.14486 -0.05232,0.04355 0.113562,0.0755 0.172512,0.109716 0.0927,0.05383 0.187973,0.103173 0.282177,0.15436 0.446606,0.242663 0.321948,0.174993 0.795388,0.421959 0.726758,0.392222 1.462092,0.768873 2.202879,1.134255 0.622911,0.309828 1.258395,0.591328 1.893845,0.87417 0.441122,0.191873 0.877567,0.394291 1.300296,0.623416 0.02495,0.02319 0.298722,0.136792 0.273427,0.2194 -9.02e-4,0.003 -0.200165,0.07955 -0.211997,0.08481 -0.07275,0.03233 -0.14356,0.06882 -0.215328,0.103253 2.686622,-1.440807 1.413978,-0.781657 0.608536,-0.606466 -0.377932,0.0822 -0.760236,0.130435 -1.144026,0.174595 -0.628254,0.06355 -1.260349,0.06312 -1.891094,0.06647 -0.63876,0.0038 -1.277516,-2.7e-4 -1.916247,-0.006 -0.08092,-8.09e-4 -0.161854,-0.0017 -0.242781,-0.0025 0,0 -1.636926,1.180416 -1.636926,1.180416 v 0 c 0.08275,-5.38e-4 0.165488,-9.42e-4 0.248231,-0.0017 0.640736,-0.0028 1.281473,-0.0028 1.922198,0.0027 0.637771,0.0012 1.276455,-0.0019 1.912461,-0.05468 0.393868,-0.0431 0.784265,-0.09557 1.17376,-0.169324 0.09906,-0.01877 0.716075,-0.139588 0.824784,-0.194229 0.688844,-0.346229 1.352307,-0.740143 2.02846,-1.110214 0.07184,-0.04922 0.153519,-0.08663 0.215518,-0.147614 0.271988,-0.267534 0.0065,-0.522258 -0.244723,-0.647253 -0.437459,-0.220931 -0.878923,-0.434829 -1.335005,-0.616307 -0.63723,-0.28148 -1.273843,-0.563601 -1.906164,-0.855971 -0.739645,-0.367657 -1.473407,-0.747564 -2.208625,-1.12364 -0.347133,-0.188364 -0.683141,-0.382599 -1.013815,-0.597933 -0.04059,-0.02644 -0.07903,-0.10177 -0.121884,-0.07914 -0.610087,0.322082 -1.186723,0.703645 -1.766879,1.076277 -0.01957,0.01252 0.04557,0.0098 0.06837,0.01468 0.306885,0.04252 0.613882,0.109873 0.924102,0.107036 0.460917,-0.0027 0.921866,-0.0056 1.38277,9.04e-4 0.4701,0.0022 0.940173,-0.0018 1.410201,-0.01062 0.679757,-0.01252 1.363453,-0.01455 2.037344,-0.112741 0.549846,-0.08285 1.099663,-0.177932 1.632407,-0.338176 1.032011,-0.435688 0.01334,0.151701 2.260012,-1.215519 0.17575,-0.106948 0.133828,-0.308979 0.03062,-0.440891 -0.452267,-0.405999 -1.008516,-0.678141 -1.498128,-1.036483 -0.171008,-0.112058 -0.336949,-0.231964 -0.511731,-0.338135 -0.48156,-0.292521 -0.99627,-0.531991 -1.464433,-0.847591 C 26.762709,10.989309 25.867139,10.388596 24.966935,9.7962348 24.259461,9.3446726 23.573321,8.8603939 22.91649,8.3384675 22.488881,7.9861017 22.112587,7.5934071 21.827105,7.1155532 21.458161,6.5721469 21.155505,5.9889066 20.898557,5.3854725 20.660805,4.8741558 20.46309,4.338063 20.356919,3.7836158 20.266487,3.204479 20.249705,2.6262905 20.287325,2.0410044 c 0.009,-0.2099647 0.01232,-0.3244293 0.02674,-0.5317131 0.005,-0.073136 0.01156,-0.14615 0.01817,-0.2191683 0.0049,-0.053449 0.06706,-0.1769414 0.01572,-0.1602225 C 18.514269,1.7268669 18.650381,1.2495523 18.471522,1.9297221 18.26253,2.374678 18.086017,2.8347513 17.8488,3.2667686 17.568545,3.8045589 17.269399,4.329801 16.874615,4.7954267 16.52708,5.2358195 16.173761,5.670123 15.762304,6.055017 c -0.435609,0.4461286 -0.917241,0.8295046 -1.43651,1.1769959 -0.09522,0.071501 -0.188819,0.1451888 -0.285658,0.2145194 -0.09159,0.065567 -0.378705,0.2435613 -0.279473,0.1900664 3.400297,-1.8330444 0.07993,-0.14903 -0.963698,0.5860641 0.49111,-0.2760911 0.982246,-0.5521389 1.473331,-0.8282724 0.09272,-0.052136 -0.184939,0.1051881 -0.278254,0.1562878 -0.102658,0.056208 -0.207776,0.1079823 -0.309627,0.1656156 -0.67795,0.3836417 -1.354617,0.7695283 -2.029672,1.1581631 C 11.334829,9.057483 13.97047,7.581084 12.600611,8.3154357 11.21974,9.0413704 9.8500258,9.7903988 8.5035262,10.57734 c -0.6916471,0.442785 -3.3480145,2.109975 -0.1839758,0.220418 -0.8630706,0.47704 -0.4120747,0.22619 -2.1929769,1.251792 -0.080291,0.04623 -0.3193394,0.187991 -0.2383598,0.142948 0.4995222,-0.27786 0.9984313,-0.556866 1.494097,-0.841453 0.083161,-0.04775 -0.1708835,0.0872 -0.2563255,0.130784 -0.6554483,0.37725 -1.3108964,0.754501 -1.9663453,1.131751 -0.280071,0.193148 -0.82896,0.495156 -0.787523,0.906762 0.0066,0.06566 0.051229,0.121806 0.076844,0.182716 0.4993603,0.308928 1.128865,0.273015 1.6891551,0.397641 0.5103549,0.09857 1.0271453,0.165536 1.5300519,0.302138 0.7290329,0.07411 1.4527291,0.190867 2.1573789,0.395653 0.5398422,0.169314 1.1257862,0.316705 1.5883762,0.650383 0.0073,0.01555 0.02509,0.02984 0.02184,0.04668 -0.03671,0.191088 -0.56811,0.502252 -0.690403,0.656031 -0.445344,0.421121 -0.9132132,0.816593 -1.3659159,1.229775 -0.4674764,0.424124 -0.9355946,0.84781 -1.4163447,1.257151 -0.5516841,0.467693 -1.1036055,0.936065 -1.5974974,1.465275 -0.4898012,0.492845 -0.9861164,0.979623 -1.4482154,1.498545 -0.1791682,0.210319 -0.5713742,0.585381 -0.3580562,0.890608 0.027266,0.03903 0.078766,0.0539 0.1181538,0.08086 0.45262,0.01644 0.896841,-0.10449 1.337828,-0.191424 0.5682946,-0.08555 1.1304916,-0.210716 1.6818423,-0.372435 0.4836391,-0.157158 0.9684332,-0.310417 1.4607662,-0.438793 0.4817091,-0.159436 0.9587563,-0.338224 1.4554813,-0.444996 0.407694,-0.08871 0.797519,-0.245638 1.194473,-0.37232 0,0 1.622106,-1.251266 1.622106,-1.251266 z" />
  </g>
</svg>
