<?xml version="1.0" encoding="UTF-8" standalone="no"?>
<svg
   xmlns:dc="http://purl.org/dc/elements/1.1/"
   xmlns:cc="http://creativecommons.org/ns#"
   xmlns:rdf="http://www.w3.org/1999/02/22-rdf-syntax-ns#"
   xmlns:svg="http://www.w3.org/2000/svg"
   xmlns="http://www.w3.org/2000/svg"
   xmlns:sodipodi="http://sodipodi.sourceforge.net/DTD/sodipodi-0.dtd"
   xmlns:inkscape="http://www.inkscape.org/namespaces/inkscape"
   viewBox="0 0 219.22501 337.142"
   version="1.1"
   id="svg56"
   sodipodi:docname="rooster-311361.svg"
   width="219.22501"
   height="337.142"
   inkscape:version="1.0.2 (e86c870879, 2021-01-15)">
  <metadata
     id="metadata62">
    <rdf:RDF>
      <cc:Work
         rdf:about="">
        <dc:format>image/svg+xml</dc:format>
        <dc:type
           rdf:resource="http://purl.org/dc/dcmitype/StillImage" />
        <dc:title></dc:title>
      </cc:Work>
    </rdf:RDF>
  </metadata>
  <defs
     id="defs60" />
  <sodipodi:namedview
     pagecolor="#ffffff"
     bordercolor="#666666"
     borderopacity="1"
     objecttolerance="10"
     gridtolerance="10"
     guidetolerance="10"
     inkscape:pageopacity="0"
     inkscape:pageshadow="2"
     inkscape:window-width="1920"
     inkscape:window-height="1043"
     id="namedview58"
     showgrid="false"
     inkscape:zoom="1.7833333"
     inkscape:cx="-101.52844"
     inkscape:cy="175.48106"
     inkscape:window-x="0"
     inkscape:window-y="0"
     inkscape:window-maximized="1"
     inkscape:current-layer="svg56" />
  <g
     stroke-linecap="round"
     id="g54"
     transform="translate(-23.879996,22.439275)">
    <g
       stroke="#000000"
       id="g14">
      <path
         d="m 70.317,245.58 c -4.9264,0.49603 -4.217,6.5982 -3.9961,10.206 -0.06306,9.5633 0.02234,19.126 0.13707,28.689 -7.779,-1.0207 -15.548,-3.1351 -23.306,-3.7829 -4.35,0.52689 -5.2388,7.4927 -0.53315,8.2512 3.0166,1.0648 13.716,1.246 11.615,2.8078 -6.6548,3.0321 -14.036,4.9167 -20.4,8.3376 -3.4196,3.3531 1.3276,9.344 5.4555,6.7166 8.1518,-3.1024 16.225,-6.4072 24.35,-9.5855 -0.76994,4.423 -4.679,8.5604 -3.859,13.1 1.7686,4.5886 9.4261,3.6052 9.5714,-1.701 2.0434,-5.2996 3.8957,-10.677 5.8901,-15.995 7.2913,-3.2407 15.194,-5.4827 22.266,-8.9875 3.5397,-2.731 0.59335,-8.8519 -3.8082,-7.3626 -6.027,2.1616 -11.962,4.6819 -17.899,7.0072 -0.1657,-11.188 -0.16175,-22.406 -0.12694,-33.538 -0.34734,-2.5758 -2.8058,-4.3807 -5.3569,-4.1637 z"
         fill="#ff7400"
         fill-rule="evenodd"
         stroke-width="2.918"
         id="path2" />
      <g
         fill="#3f3f3f"
         stroke-linejoin="round"
         stroke-width="4.137"
         id="g10">
        <path
           d="m 205.43,112.75 c 2.7881,-8.3888 1.4322,-13.348 -0.37642,-14.534 -4.0336,-3.3139 -9.122,-3.1569 -13.862,-4.078 -2.8508,0.10892 -6.119,-0.63557 -10.194,7.3199 -3.3561,7.6894 -5.6086,17.252 -7.4802,25.712 -3.6991,17.256 -3.6336,32.9 1.2008,35.023 6.0405,3.149 16.754,-12.811 24.783,-32.825 2.135,-5.2658 4.1384,-10.876 5.9288,-16.618 z"
           id="path4" />
        <path
           d="m 220.86,124.37 c 4.8808,-7.3704 4.8662,-12.512 3.4299,-14.129 -3.0289,-4.2518 -7.9819,-5.4282 -12.317,-7.5545 -2.7804,-0.63887 -5.7411,-2.2105 -11.751,4.4058 -5.2466,6.547 -9.9167,15.19 -13.932,22.869 -8.0745,15.693 -12.094,30.811 -7.9815,34.123 5.0093,4.6164 19.517,-7.9946 32.491,-25.22 3.4353,-4.526 6.8333,-9.4186 10.06,-14.495 z"
           id="path6" />
        <path
           d="m 234.33,137.06 c 6.3094,-6.1916 7.3664,-11.223 6.2985,-13.104 -2.0765,-4.7896 -6.6757,-6.9722 -10.473,-9.9552 -2.5863,-1.2042 -5.1545,-3.3582 -12.411,1.8607 -6.4956,5.3101 -12.864,12.79 -18.391,19.464 -11.167,13.666 -18.249,27.615 -14.916,31.711 3.9375,5.5589 20.754,-3.7525 37.033,-17.896 4.303,-3.7109 8.6459,-7.788 12.86,-12.08 z"
           id="path8" />
      </g>
      <path
         d="m 146.08,244.02 c -5.5605,0.73753 -4.6419,7.4486 -4.2145,11.476 -0.36403,8.7042 -0.0407,17.491 -0.27927,26.226 -6.6212,-2.1064 -12.958,-6.2496 -19.879,-7.0833 -5.2474,0.62872 -3.8091,8.6891 0.99015,8.7082 6.4157,2.9846 14.103,4.7238 19.732,8.4792 2.7776,6.2037 3.9118,13.423 7.6879,19.042 3.4597,2.9034 9.8396,-1.4472 7.1341,-5.6108 -0.97444,-3.9441 -6.5854,-12.65 0.98375,-7.8249 7.49,2.6069 14.674,6.5092 22.348,8.358 5.0144,0.0543 5.5315,-8.1353 0.45698,-8.5051 -6.4656,-2.5642 -12.931,-5.1284 -19.397,-7.6927 4.9564,-1.5573 11.194,-0.39319 15.462,-3.5797 2.977,-3.348 -1.7781,-8.5317 -5.56,-6.601 -6.8718,1.1679 -13.744,2.3357 -20.615,3.5036 -0.0653,-12.103 0.6532,-24.38 -0.2285,-36.381 -0.80392,-1.6991 -2.7707,-2.6993 -4.6207,-2.5134 z"
         fill="#ff7400"
         fill-rule="evenodd"
         stroke-width="2.918"
         id="path12" />
    </g>
    <g
       stroke-linejoin="round"
       id="g52">
      <g
         stroke-width="4"
         id="g20">
        <path
           d="m 203.86,181.97 c 0.0147,49.158 -39.832,89.017 -88.99,89.017 -49.158,0 -89.005,-39.859 -88.99,-89.017 -0.01466,-49.158 39.832,-89.017 88.99,-89.017 49.158,0 89.005,39.859 88.99,89.017 z"
           fill="#7f0000"
           stroke="#000000"
           id="path16" />
        <path
           d="m 198.48,153.44 c 0.0624,1.3662 0.10155,2.7568 0.10155,4.1383 0,49.123 -39.863,88.986 -88.986,88.986 -38.397,0 -71.161,-24.372 -83.629,-58.469 2.1558,47.212 41.169,84.873 88.91,84.873 49.123,0 88.986,-39.863 88.986,-88.986 0,-10.726 -1.8996,-21.018 -5.3823,-30.542 z"
           fill-opacity="0.314"
           id="path18" />
      </g>
      <g
         stroke="#000000"
         id="g30">
        <g
           fill="#ff0000"
           fill-rule="evenodd"
           id="g26">
          <path
             d="m 112.88,39.554 -4.0039,38.111 c 8.6014,-8.4929 17.71,-16.373 29.754,-19.718 33.582,-9.3283 -9.4908,-39.951 -25.75,-18.393 z"
             stroke-width="2.7"
             id="path22" />
          <path
             d="m 100.24,16.936 7.2241,60.43 c 5.6576,-16.846 11.97,-32.971 22.358,-43.402 28.966,-29.084 -20.477,-57.346 -29.583,-17.028 z"
             stroke-width="2.94"
             id="path24" />
        </g>
        <path
           d="m 167.67,108.69 c 0.01,33.375 -27.043,60.436 -60.418,60.436 -33.375,0 -60.428,-27.061 -60.418,-60.436 -0.0099,-33.375 27.043,-60.436 60.418,-60.436 33.375,0 60.428,27.061 60.418,60.436 z"
           fill="#7f3f00"
           stroke-width="2.716"
           id="path28" />
      </g>
      <path
         d="m 148.76,98.454 c 0.003,9.5561 -7.7431,17.304 -17.299,17.304 -9.5561,0 -17.302,-7.7482 -17.299,-17.304 -0.003,-9.5561 7.7431,-17.304 17.299,-17.304 9.5561,0 17.302,7.7482 17.299,17.304 z"
         fill="#ffffff"
         stroke="#000000"
         stroke-width="2.71"
         id="path32" />
      <path
         d="m 133.38,101.51 c 9.5e-4,3.1854 -2.581,5.7681 -5.7664,5.7681 -3.1854,0 -5.7673,-2.5828 -5.7664,-5.7681 -9.5e-4,-3.1854 2.581,-5.7681 5.7664,-5.7681 3.1854,0 5.7673,2.5828 5.7664,5.7681 z"
         stroke-width="47.667"
         id="path34" />
      <path
         d="m 101.48,98.454 c 0.003,9.5561 -7.7431,17.304 -17.299,17.304 -9.5561,0 -17.302,-7.7482 -17.299,-17.304 -0.0028,-9.5561 7.7431,-17.304 17.299,-17.304 9.5561,0 17.302,7.7482 17.299,17.304 z"
         fill="#ffffff"
         stroke="#000000"
         stroke-width="2.71"
         id="path36" />
      <path
         d="m 94.274,101.51 c 9.46e-4,3.1854 -2.581,5.7681 -5.7664,5.7681 -3.1854,0 -5.7673,-2.5828 -5.7664,-5.7681 -9.46e-4,-3.1854 2.581,-5.7681 5.7664,-5.7681 3.1854,0 5.7673,2.5828 5.7664,5.7681 z"
         stroke-width="47.667"
         id="path38" />
      <path
         d="m 166.34,88.201 -1.418,2.158 c 0.18823,2.4986 0.25998,5.0392 0.25998,7.6165 0,36.701 -36.599,67.16 -61.893,63.167 -21.062,-3.325 -46.203,-15.975 -57.521,-42.653 5.7593,32.697 43.236,56.93 61.16,56.74 39.738,-0.41563 61.893,-28.544 61.893,-65.245 0,-7.6299 -0.81323,-14.957 -2.4814,-21.783 z"
         fill-opacity="0.314"
         stroke-width="4"
         id="path40" />
      <g
         fill-rule="evenodd"
         stroke="#000000"
         id="g50">
        <g
           fill="#ff0000"
           stroke-width="3.062"
           id="g46">
          <path
             d="m 84.356,5.9834 22.19,71.981 c 1.0367,-21.076 2.8744,-41.367 9.9993,-55.322 19.867,-38.912 -33.882,-66.515 -32.189,-16.659 z"
             id="path42" />
          <path
             d="m 116.43,205.05 -8.6287,-61.978 c -2.7334,16.467 -5.9512,32.134 -12.256,41.602 -17.581,26.401 17.313,60.255 20.885,20.376 z"
             id="path44" />
        </g>
        <path
           d="m 87.756,132.9 17.274,38.56 20.956,-33.68 c -6.5513,-15.719 -27.571,-18.229 -38.229,-4.8802 z"
           fill="#ffce00"
           stroke-width="3.099"
           id="path48" />
      </g>
    </g>
  </g>
</svg>
